<svg xmlns="http://www.w3.org/2000/svg" width="89" height="89"><path d="M 44.5 3 C 67.42 3 86 21.58 86 44.5 C 86 67.42 67.42 86 44.5 86 C 21.58 86 3 67.42 3 44.5 C 3 21.58 21.58 3 44.5 3 Z" fill="transparent" stroke-width="5" stroke="rgba(45, 110, 164, 1.00)"></path><path d="M 44 55.917 C 46.842 55.917 49.167 53.592 49.167 50.75 C 49.167 47.908 46.842 45.583 44 45.583 C 41.158 45.583 38.833 47.908 38.833 50.75 C 38.833 53.592 41.158 55.917 44 55.917 Z M 59.5 32.667 L 56.917 32.667 L 56.917 27.5 C 56.917 20.37 51.13 14.583 44 14.583 C 36.87 14.583 31.083 20.37 31.083 27.5 L 31.083 32.667 L 28.5 32.667 C 25.658 32.667 23.333 34.992 23.333 37.833 L 23.333 63.667 C 23.333 66.508 25.658 68.833 28.5 68.833 L 59.5 68.833 C 62.342 68.833 64.667 66.508 64.667 63.667 L 64.667 37.833 C 64.667 34.992 62.342 32.667 59.5 32.667 Z M 35.992 27.5 C 35.992 23.083 39.583 19.492 44 19.492 C 48.417 19.492 52.008 23.083 52.008 27.5 L 52.008 32.667 L 35.992 32.667 Z M 59.5 63.667 L 28.5 63.667 L 28.5 37.833 L 59.5 37.833 Z" fill="rgb(45,110,164)"></path></svg>