<svg xmlns="http://www.w3.org/2000/svg" width="89" height="89"><path d="M 63.333 65.75 L 63.333 60.917 C 63.333 55.578 59.005 51.25 53.667 51.25 L 34.333 51.25 C 28.995 51.25 24.667 55.578 24.667 60.917 L 24.667 65.75" fill="transparent" stroke-width="4.833333333333333" stroke="rgba(44, 110, 164, 1.00)" stroke-linecap="round" stroke-linejoin="round" stroke-dasharray=""></path><path d="M 34.333 31.917 C 34.333 26.578 38.661 22.25 44 22.25 C 49.339 22.25 53.667 26.578 53.667 31.917 C 53.667 37.255 49.339 41.583 44 41.583 C 38.661 41.583 34.333 37.255 34.333 31.917 Z" fill="transparent" stroke-width="4.833333333333333" stroke="rgba(44, 110, 164, 1.00)" stroke-linecap="round" stroke-linejoin="round" stroke-dasharray=""></path><path d="M 44.5 3 C 67.42 3 86 21.58 86 44.5 C 86 67.42 67.42 86 44.5 86 C 21.58 86 3 67.42 3 44.5 C 3 21.58 21.58 3 44.5 3 Z" fill="transparent" stroke-width="5" stroke="rgba(45, 110, 164, 1.00)"></path></svg>