<svg xmlns="http://www.w3.org/2000/svg" width="89" height="89"><path d="M 44.5 3 C 67.42 3 86 21.58 86 44.5 C 86 67.42 67.42 86 44.5 86 C 21.58 86 3 67.42 3 44.5 C 3 21.58 21.58 3 44.5 3 Z" fill="rgba(45, 110, 164, 1.00)" stroke-width="5" stroke="rgba(45, 110, 164, 1.00)"></path><path d="M 64.333 66.75 L 64.333 61.917 C 64.333 56.578 60.005 52.25 54.667 52.25 L 35.333 52.25 C 29.995 52.25 25.667 56.578 25.667 61.917 L 25.667 66.75" fill="transparent" stroke-width="4.833333333333333" stroke="hsl(0, 0%, 100%)" stroke-linecap="round" stroke-linejoin="round" stroke-dasharray=""></path><path d="M 35.333 32.917 C 35.333 27.578 39.661 23.25 45 23.25 C 50.339 23.25 54.667 27.578 54.667 32.917 C 54.667 38.255 50.339 42.583 45 42.583 C 39.661 42.583 35.333 38.255 35.333 32.917 Z" fill="transparent" stroke-width="4.833333333333333" stroke="hsl(0, 0%, 100%)" stroke-linecap="round" stroke-linejoin="round" stroke-dasharray=""></path></svg>