<svg xmlns="http://www.w3.org/2000/svg" width="88" height="66"><path d="M 57.683 43.352 C 56.418 43.353 55.289 42.56 54.859 41.37 C 54.43 40.181 54.793 38.849 55.767 38.042 C 57.269 36.799 58.139 34.95 58.139 33 C 58.139 31.05 57.27 29.201 55.768 27.957 C 54.499 26.898 54.326 25.013 55.38 23.74 C 56.434 22.467 58.318 22.286 59.595 23.335 C 62.473 25.719 64.139 29.261 64.139 32.998 C 64.139 36.735 62.474 40.278 59.596 42.662 C 59.058 43.108 58.382 43.353 57.683 43.352 Z" fill="rgba(43, 104, 127, 1.00)"></path><path d="M 65.231 52.475 C 63.965 52.476 62.835 51.682 62.406 50.492 C 61.977 49.301 62.342 47.969 63.317 47.163 C 67.539 43.671 69.983 38.478 69.983 32.999 C 69.983 27.52 67.539 22.327 63.317 18.835 C 62.04 17.779 61.861 15.888 62.917 14.611 C 63.973 13.334 65.864 13.155 67.141 14.211 C 72.741 18.843 75.983 25.731 75.983 32.999 C 75.983 40.267 72.741 47.155 67.141 51.787 C 66.604 52.232 65.928 52.475 65.231 52.475 Z" fill="rgba(43, 104, 127, 1.00)"></path><path d="M 72.574 61.347 C 71.309 61.348 70.179 60.555 69.75 59.365 C 69.321 58.176 69.684 56.844 70.658 56.038 C 77.523 50.356 81.497 41.91 81.497 32.998 C 81.497 24.087 77.523 15.641 70.658 9.959 C 69.83 9.276 69.43 8.203 69.609 7.145 C 69.788 6.087 70.519 5.205 71.525 4.833 C 72.532 4.46 73.661 4.653 74.485 5.34 C 82.727 12.16 87.497 22.301 87.497 32.998 C 87.497 43.696 82.727 53.837 74.485 60.657 C 73.949 61.104 73.272 61.348 72.574 61.347 Z" fill="rgba(43, 104, 127, 1.00)"></path><path d="M 40.019 1.881 L 23.819 17.481 L 9.551 17.481 C 7.77 17.477 6.088 18.302 5.003 19.713 C -0.997 27.558 -0.997 38.449 5.003 46.293 C 6.092 47.701 7.771 48.525 9.551 48.525 L 23.819 48.525 L 40.019 64.113 C 41.054 65.111 42.585 65.393 43.908 64.831 C 45.231 64.269 46.09 62.971 46.091 61.533 L 46.091 4.461 C 46.087 3.025 45.228 1.729 43.906 1.167 C 42.584 0.606 41.055 0.887 40.019 1.881 Z" fill="rgb(43,104,127)"></path><path d="M 23.783 17.481 L 23.783 48.525 L 9.551 48.525 C 7.771 48.525 6.092 47.701 5.003 46.293 C -0.997 38.449 -0.997 27.558 5.003 19.713 C 6.088 18.302 7.77 17.477 9.551 17.481 Z" fill="rgb(16,85,107)"></path></svg>